HIERARCHY
ROOT Hips
{
  OFFSET 5.72205e-005 65.662 3.42586
  CHANNELS 6 Xposition Yposition Zposition Zrotation Xrotation Yrotation
  JOINT Chest
  {
    OFFSET 0 8.7983 -4.7612
    CHANNELS 3 Zrotation Xrotation Yrotation
    JOINT Chest2
    {
      OFFSET 0 8.0291 0.4195
      CHANNELS 3 Zrotation Xrotation Yrotation
      JOINT Chest3
      {
        OFFSET 0 9.9351 -2.2114
        CHANNELS 3 Zrotation Xrotation Yrotation
        JOINT Neck
        {
          OFFSET 0 22.3885 -0.4656
          CHANNELS 3 Zrotation Xrotation Yrotation
          JOINT Head
          {
            OFFSET -0.0001 12.643 3.4389
            CHANNELS 3 Zrotation Xrotation Yrotation
            End Site
            {
              OFFSET 0.0001 17.6655 0.5274
            }
          }
        }
        JOINT LeftCollar
        {
          OFFSET 2.2603 21.606 7.4023
          CHANNELS 3 Zrotation Xrotation Yrotation
          JOINT LeftShoulder
          {
            OFFSET 13.5163 -1.1332 -5.0146
            CHANNELS 3 Zrotation Xrotation Yrotation
            JOINT LeftElbow
            {
              OFFSET -0.0995 -28.05 -0.2431
              CHANNELS 3 Zrotation Xrotation Yrotation
              JOINT LeftWrist
              {
                OFFSET 0.0679 -23.3996 -0.1402
                CHANNELS 3 Zrotation Xrotation Yrotation
                JOINT LeftFinger1
                {
                  OFFSET 0.7932 -9.069 2.5189
                  CHANNELS 3 Zrotation Xrotation Yrotation
                  JOINT LeftFinger11
                  {
                    OFFSET -0.8272 -3.3923 0.5977
                    CHANNELS 3 Zrotation Xrotation Yrotation
                    JOINT LeftFinger12
                    {
                      OFFSET -0.5649 -2.3158 0.4082
                      CHANNELS 3 Zrotation Xrotation Yrotation
                      End Site
                      {
                        OFFSET -0.4919 -1.6479 0.2673
                      }
                    }
                  }
                }
                JOINT LeftFinger2
                {
                  OFFSET 0.9159 -9.2044 0.2193
                  CHANNELS 3 Zrotation Xrotation Yrotation
                  JOINT LeftFinger21
                  {
                    OFFSET 0.0117 -4.1944 -0.0248
                    CHANNELS 3 Zrotation Xrotation Yrotation
                    JOINT LeftFinger22
                    {
                      OFFSET 0.0071 -2.3249 -0.0142
                      CHANNELS 3 Zrotation Xrotation Yrotation
                      End Site
                      {
                        OFFSET -0.1475 -2.0882 0.0028
                      }
                    }
                  }
                }
                JOINT LeftFinger3
                {
                  OFFSET 0.6113 -8.7231 -2.0637
                  CHANNELS 3 Zrotation Xrotation Yrotation
                  JOINT LeftFinger31
                  {
                    OFFSET -0.1927 -3.8059 -0.2383
                    CHANNELS 3 Zrotation Xrotation Yrotation
                    JOINT LeftFinger32
                    {
                      OFFSET -0.1091 -2.1688 -0.1362
                      CHANNELS 3 Zrotation Xrotation Yrotation
                      End Site
                      {
                        OFFSET -0.2358 -1.9176 -0.0906
                      }
                    }
                  }
                }
                JOINT LeftFinger4
                {
                  OFFSET -0.6151 -8.0947 -3.5641
                  CHANNELS 3 Zrotation Xrotation Yrotation
                  JOINT LeftFinger41
                  {
                    OFFSET -0.4882 -2.341 -0.6462
                    CHANNELS 3 Zrotation Xrotation Yrotation
                    JOINT LeftFinger42
                    {
                      OFFSET -0.3575 -1.7167 -0.4742
                      CHANNELS 3 Zrotation Xrotation Yrotation
                      End Site
                      {
                        OFFSET -0.4187 -1.5237 -0.3496
                      }
                    }
                  }
                }
                JOINT LeftFinger0
                {
                  OFFSET -1.42 -1.8761 1.4223
                  CHANNELS 3 Zrotation Xrotation Yrotation
                  JOINT LeftFinger01
                  {
                    OFFSET -1.1471 -3.4929 2.6334
                    CHANNELS 3 Zrotation Xrotation Yrotation
                    JOINT LeftFinger02
                    {
                      OFFSET -0.823 -2.3 1.6571
                      CHANNELS 3 Zrotation Xrotation Yrotation
                      End Site
                      {
                        OFFSET -0.5822 -1.6914 1.1582
                      }
                    }
                  }
                }
              }
            }
          }
        }
        JOINT RightCollar
        {
          OFFSET -2.2603 21.606 7.4023
          CHANNELS 3 Zrotation Xrotation Yrotation
          JOINT RightShoulder
          {
            OFFSET -13.5187 -1.1334 -5.0155
            CHANNELS 3 Zrotation Xrotation Yrotation
            JOINT RightElbow
            {
              OFFSET 0.0994 -28.0499 -0.2431
              CHANNELS 3 Zrotation Xrotation Yrotation
              JOINT RightWrist
              {
                OFFSET -0.0679 -23.3996 -0.1402
                CHANNELS 3 Zrotation Xrotation Yrotation
                JOINT RightFinger1
                {
                  OFFSET -0.7932 -9.0691 2.5189
                  CHANNELS 3 Zrotation Xrotation Yrotation
                  JOINT RightFinger11
                  {
                    OFFSET 0.8272 -3.3923 0.5977
                    CHANNELS 3 Zrotation Xrotation Yrotation
                    JOINT RightFinger12
                    {
                      OFFSET 0.565 -2.3158 0.4082
                      CHANNELS 3 Zrotation Xrotation Yrotation
                      End Site
                      {
                        OFFSET 0.4919 -1.6479 0.2673
                      }
                    }
                  }
                }
                JOINT RightFinger2
                {
                  OFFSET -0.916 -9.2044 0.2193
                  CHANNELS 3 Zrotation Xrotation Yrotation
                  JOINT RightFinger21
                  {
                    OFFSET -0.0117 -4.1944 -0.0248
                    CHANNELS 3 Zrotation Xrotation Yrotation
                    JOINT RightFinger22
                    {
                      OFFSET -0.0071 -2.3249 -0.0142
                      CHANNELS 3 Zrotation Xrotation Yrotation
                      End Site
                      {
                        OFFSET 0.1475 -2.0882 0.0028
                      }
                    }
                  }
                }
                JOINT RightFinger3
                {
                  OFFSET -0.6113 -8.7231 -2.0637
                  CHANNELS 3 Zrotation Xrotation Yrotation
                  JOINT RightFinger31
                  {
                    OFFSET 0.1927 -3.8059 -0.2383
                    CHANNELS 3 Zrotation Xrotation Yrotation
                    JOINT RightFinger32
                    {
                      OFFSET 0.1091 -2.1688 -0.1362
                      CHANNELS 3 Zrotation Xrotation Yrotation
                      End Site
                      {
                        OFFSET 0.2358 -1.9176 -0.0906
                      }
                    }
                  }
                }
                JOINT RightFinger4
                {
                  OFFSET 0.6151 -8.0947 -3.564
                  CHANNELS 3 Zrotation Xrotation Yrotation
                  JOINT RightFinger41
                  {
                    OFFSET 0.4882 -2.341 -0.6462
                    CHANNELS 3 Zrotation Xrotation Yrotation
                    JOINT RightFinger42
                    {
                      OFFSET 0.3574 -1.7166 -0.4742
                      CHANNELS 3 Zrotation Xrotation Yrotation
                      End Site
                      {
                        OFFSET 0.4187 -1.5237 -0.3496
                      }
                    }
                  }
                }
                JOINT RightFinger0
                {
                  OFFSET 1.4199 -1.8761 1.4221
                  CHANNELS 3 Zrotation Xrotation Yrotation
                  JOINT RightFinger01
                  {
                    OFFSET 1.1472 -3.4929 2.6336
                    CHANNELS 3 Zrotation Xrotation Yrotation
                    JOINT RightFinger02
                    {
                      OFFSET 0.8229 -2.3 1.6571
                      CHANNELS 3 Zrotation Xrotation Yrotation
                      End Site
                      {
                        OFFSET 0.5822 -1.6914 1.1582
                      }
                    }
                  }
                }
              }
            }
          }
        }
      }
    }
  }
  JOINT RightHip
  {
    OFFSET -9.412 3.9771 -0.7758
    CHANNELS 3 Zrotation Xrotation Yrotation
    JOINT RightKnee
    {
      OFFSET -0.7531 -40.938 0
      CHANNELS 3 Zrotation Xrotation Yrotation
      JOINT RightAnkle
      {
        OFFSET 0 -40.1986 0
        CHANNELS 3 Zrotation Xrotation Yrotation
        JOINT RightToe
        {
          OFFSET 0 -4.4182 9.239
          CHANNELS 3 Zrotation Xrotation Yrotation
          End Site
          {
            OFFSET 0 0 6.1981
          }
        }
      }
    }
  }
  JOINT LeftHip
  {
    OFFSET 9.4119 3.9773 -0.7758
    CHANNELS 3 Zrotation Xrotation Yrotation
    JOINT LeftKnee
    {
      OFFSET 0.7532 -40.9383 0
      CHANNELS 3 Zrotation Xrotation Yrotation
      JOINT LeftAnkle
      {
        OFFSET 0 -40.1986 0
        CHANNELS 3 Zrotation Xrotation Yrotation
        JOINT LeftToe
        {
          OFFSET 0 -4.4182 9.239
          CHANNELS 3 Zrotation Xrotation Yrotation
          End Site
          {
            OFFSET 0 0 6.1981
          }
        }
      }
    }
  }
}
MOTION
Frames:	4
Frame Time:	0.0333333
5.72205e-005 65.662 3.42586 0 0 -0 0 0 -0 0 0 -0 0 0 -0 0 0 -0 0 0 -0 0 0 -12.5014 88.1196 14.2451 10.6914 -0.00160068 -0.00239207 0.000740045 -8.4365e-005 7.00714e-005 -9.52055e-007 9.93923e-017 -1.98785e-016 -1.59028e-015 9.93923e-017 -5.96354e-016 -1.59028e-015 -9.93923e-017 -5.96354e-016 -1.59028e-015 9.93923e-017 -1.98785e-016 -1.59028e-015 -0.0128176 0.00232552 8.52707e-005 9.93923e-017 5.96354e-016 -0 9.93923e-017 -1.98785e-016 -1.59028e-015 -0.0160551 0.00299681 0.000857156 -2.48481e-016 0 3.18055e-015 9.93923e-017 -1.98785e-016 -1.59028e-015 -0.0125865 0.0031206 0.00282719 0 1.98785e-016 -0 9.93923e-017 -1.98785e-016 -1.59028e-015 9.93923e-017 -5.96354e-016 -1.59028e-015 -9.93923e-017 -5.96354e-016 -1.59028e-015 -0.865644 0.16582 7.03859 -88.0329 10.2057 -10.5567 0.0015593 -0.00248883 -0.000788628 7.87605e-005 4.10553e-005 1.24965e-005 -3.97569e-016 -7.95139e-016 3.18055e-015 -1.98785e-016 -3.97569e-016 3.18055e-015 -1.98785e-016 0 3.18055e-015 -3.97569e-016 -7.95139e-016 3.18055e-015 0.0129473 0.00231697 -8.70038e-005 9.93923e-017 -7.95139e-016 1.59028e-015 -3.97569e-016 -7.95139e-016 3.18055e-015 0.0163314 0.00303369 -0.000872333 3.97569e-016 7.95139e-016 -3.18055e-015 -3.97569e-016 -7.95139e-016 3.18055e-015 0.0145763 0.00367772 -0.00326275 9.93923e-017 -3.97569e-016 -0 -3.97569e-016 -7.95139e-016 3.18055e-015 -1.98785e-016 -3.97569e-016 3.18055e-015 -1.98785e-016 0 3.18055e-015 3.42482 1.32465 -0.0626183 0.000117508 0.717283 0.000978199 -3.4257 -2.04197 -0.0604716 6.47761e-025 0 -0 -3.42483 1.34017 0.0627307 -0.000193936 0.682302 -0.0013703 3.42574 -2.02253 0.0595886 -8.45714e-024 0 -7.40531e-025 
-22.7639 39.0878 3.78335 -1.91294e-015 4.81516e-015 133.333 0.111305 0.431119 -0.440526 0.225932 0.861375 -0.881897 0.225929 0.861367 -0.88186 6.67 -1.65956 0.261325 -3.88377e-007 11.1942 2.62325e-006 -15.5325 -9.66096 -12.5301 54.1237 -39.0102 13.2075 -44.8165 -3.82831 -29.7124 -24.6167 -1.92722 -3.3999 1.59028e-015 1.90833e-014 -0 7.10261e-006 -1.60358e-005 7.82933e-006 3.11966e-006 1.67989e-006 1.27769e-006 1.59028e-015 1.90833e-014 -0 -0.0128486 0.00232575 8.358e-005 2.71843e-006 1.20108e-006 -5.86809e-007 1.59028e-015 1.90833e-014 -0 -0.0160706 0.00300478 0.000857992 -2.20695e-031 -3.97569e-015 -3.18055e-015 1.59028e-015 1.90833e-014 -0 -0.0125927 0.00312369 0.00281626 1.21592e-006 3.72152e-006 -1.1724e-006 1.59028e-015 1.90833e-014 -0 7.10261e-006 -1.60358e-005 7.82933e-006 3.11966e-006 1.67989e-006 1.27769e-006 -8.94768 -9.84054 -2.16723 -35.3476 -53.8902 4.15142 53.7427 -23.2064 5.88687 36.2828 -10.8441 -6.97564 0 0 -3.18055e-015 -9.54166e-015 -6.36111e-015 -4.77083e-015 -6.36111e-015 6.36111e-015 -6.36111e-015 0 0 -3.18055e-015 0.0129309 0.00231033 -8.82126e-005 6.36111e-015 0 1.59028e-015 0 0 -3.18055e-015 0.0163178 0.0030253 -0.000866693 -9.54166e-015 0 -0 0 0 -3.18055e-015 0.0145866 0.00368147 -0.00326517 9.44156e-007 -3.89303e-007 -2.33836e-006 0 0 -3.18055e-015 -9.54166e-015 -6.36111e-015 -4.77083e-015 -6.36111e-015 6.36111e-015 -6.36111e-015 -28.2047 -60.381 -39.0015 2.30967 42.3665 -0.00937657 -4.79677 23.7363 -1.42335 1.19271e-015 1.98785e-016 -3.18055e-015 28.2132 -60.3799 39.0036 -2.32062 42.3709 0.0085966 4.79198 23.736 1.42468 2.30173e-007 5.17085e-007 3.04513e-006 
-39.835 27.4295 5.15672 -8.63487e-015 6.82757e-015 -166.667 0.16967 0.616759 -0.606804 0.34589 1.23167 -1.21552 0.34589 1.23167 -1.21552 9.66846 -1.4389 0.226289 8.67645e-007 15.8137 -2.6182e-006 -22.5254 -14.0092 -12.5431 49.6676 -63.5084 22.5967 -64.485 -6.56012 -41.1992 -35.6465 -2.90899 -4.34307 -1.98476e-006 -2.06236e-006 2.36548e-006 6.36111e-015 -4.77083e-015 -0 -8.79811e-006 1.33684e-005 -4.93232e-006 -1.98476e-006 -2.06236e-006 2.36548e-006 -0.0128449 0.00233626 7.61599e-005 2.20146e-006 -1.39967e-005 9.14612e-006 -1.98476e-006 -2.06236e-006 2.36548e-006 -0.0160404 0.00300203 0.000849087 8.00786e-006 -8.99316e-006 4.60807e-006 -1.98476e-006 -2.06236e-006 2.36548e-006 -0.0125377 0.00312602 0.00280546 8.66164e-006 -1.57495e-005 4.31408e-006 -1.98476e-006 -2.06236e-006 2.36548e-006 6.36111e-015 -4.77083e-015 -0 -8.79811e-006 1.33684e-005 -4.93232e-006 -13.6556 -14.1393 -6.52845 -57.1079 -80.6768 -33.1288 76.3865 -34.974 6.39933 52.3374 -16.0085 -11.1006 2.27073e-006 -2.7933e-006 -3.17313e-006 3.18055e-015 0 1.19271e-015 5.7409e-006 1.24426e-005 -2.89803e-006 2.27073e-006 -2.7933e-006 -3.17313e-006 0.0130117 0.0023335 -8.22529e-005 1.33191e-008 1.2716e-006 -3.40239e-006 2.27073e-006 -2.7933e-006 -3.17313e-006 0.0163602 0.00303188 -0.000872642 1.27222e-014 0 -1.19271e-015 2.27073e-006 -2.7933e-006 -3.17313e-006 0.0146703 0.0037117 -0.00328645 -2.22639e-014 -1.59028e-015 -0 2.27073e-006 -2.7933e-006 -3.17313e-006 3.18055e-015 0 1.19271e-015 5.7409e-006 1.24426e-005 -2.89803e-006 -94.8593 -62.7223 -101.403 1.98057 60.2362 0.953265 -4.229 36.0595 -2.69665 -2.12675e-007 -5.9996e-008 -1.49911e-008 94.856 -62.72 101.409 -1.98431 60.237 -0.954925 4.24222 36.0577 2.67891 9.93923e-016 2.45499e-014 -3.18055e-015 
-35.8669 30.0078 4.34883 -7.01671e-015 7.01671e-015 180 0.156417 0.575915 -0.571578 0.318596 1.15024 -1.14481 0.318598 1.15024 -1.14482 9.00048 0.665271 -0.106945 4.12506e-006 13.8583 -6.11452e-007 -20.9712 -13.0429 -12.5402 49.0117 -58.171 18.9447 -60.0949 -5.55214 -38.721 -33.2004 -2.67836 -4.16338 -2.34505e-006 8.66915e-007 2.16474e-006 8.16035e-008 -4.23404e-006 -1.42401e-006 3.18055e-015 -1.59028e-015 3.18055e-015 -2.34505e-006 8.66915e-007 2.16474e-006 -0.0127815 0.00232677 8.4513e-005 -3.97569e-016 6.75868e-015 -0 -2.34505e-006 8.66915e-007 2.16474e-006 -0.0160276 0.00299157 0.000857939 1.39149e-015 2.98177e-015 3.18055e-015 -2.34505e-006 8.66915e-007 2.16474e-006 -0.0126096 0.00314303 0.00283181 -1.4243e-006 -4.92618e-006 2.80684e-006 -2.34505e-006 8.66915e-007 2.16474e-006 8.16035e-008 -4.23404e-006 -1.42401e-006 3.18055e-015 -1.59028e-015 3.18055e-015 -12.5505 -13.2014 -5.54122 -37.6526 -76.0085 -10.2227 71.4982 -32.4654 6.39826 48.8007 -14.8271 -10.1345 -3.18055e-015 -2.48481e-016 -1.98785e-016 -5.17255e-034 -9.93923e-017 -2.98177e-016 6.36111e-015 -7.45443e-016 9.93923e-017 -3.18055e-015 -2.48481e-016 -1.98785e-016 0.0129497 0.00233087 -7.69356e-005 -3.18055e-015 7.45443e-016 -9.93923e-017 -3.18055e-015 -2.48481e-016 -1.98785e-016 0.0163407 0.00304925 -0.000858372 3.18055e-015 -2.48481e-016 1.98785e-016 -3.18055e-015 -2.48481e-016 -1.98785e-016 0.0145866 0.00367722 -0.00325888 1.03451e-033 -5.96354e-016 9.93923e-017 -3.18055e-015 -2.48481e-016 -1.98785e-016 -5.17255e-034 -9.93923e-017 -2.98177e-016 6.36111e-015 -7.45443e-016 9.93923e-017 -80.5087 -65.4866 -87.9814 2.19103 56.3356 0.614239 -3.87944 33.3152 -2.90122 -4.25495e-007 -4.53146e-007 -2.67393e-008 80.5167 -65.4666 88.0271 -2.19484 56.3359 -0.614847 3.93112 33.3106 2.84588 2.1275e-007 1.31239e-007 1.33434e-008 
